<svg width="1600" height="671" viewBox="0 0 1600 671" fill="none" xmlns="http://www.w3.org/2000/svg">
<g opacity="0.3" clip-path="url(#clip0_34_4846)">
<path d="M458.604 613.807C460.673 614.187 462.743 614.567 465.33 615.023C462.004 617.758 462.004 617.758 458.751 613.655C457.125 614.263 455.573 614.871 453.356 615.706C453.578 613.503 453.652 612.44 453.873 610.008C455.943 611.604 457.273 612.743 458.604 613.807ZM448.699 622.088C450.547 620.949 452.469 619.809 454.243 618.745C463.334 624.975 463.334 624.975 461.338 629.305C457.125 626.95 452.839 624.519 448.699 622.088C449.069 623.456 450.178 625.431 449.734 626.191C447.073 629.913 445.817 633.712 447.591 638.574C445.669 637.207 444.265 635.763 443.304 634.092C442.195 632.116 441.53 629.837 440.569 627.406C434.878 628.622 430.591 627.102 428.004 621.632C429.556 617.074 430.517 611.984 437.539 610.692C439.313 616.238 441.013 621.708 443.008 628.242C445.595 625.431 447.147 623.759 448.699 622.088ZM621.062 512.992C618.918 508.434 614.262 505.319 614.262 499.393C614.262 494.607 612.932 489.896 612.119 484.806C616.479 482.375 620.988 479.944 625.866 477.285C628.453 484.806 633.109 490.96 630.67 499.393C625.57 500.988 622.318 504.559 622.244 510.713C622.244 511.473 621.431 512.232 621.062 512.992C626.162 511.776 632.075 511.548 631.631 503.419C633.331 510.105 635.77 516.411 633.036 523.628C628.675 519.754 624.831 516.411 621.062 512.992ZM538.872 478.956C537.615 484.199 537.911 489.365 535.546 491.948C530.298 497.57 529.707 504.483 528.007 511.548C525.789 512.004 523.572 512.384 521.503 512.84C514.998 506.382 510.046 498.329 500.512 496.43C499.699 496.278 499.107 494.683 498.442 493.771C497.629 492.631 497.038 491.112 495.929 490.504C488.242 486.25 481.738 480.552 475.825 474.17C477.082 472.119 478.042 470.599 479.521 468.168C477.377 468.016 476.269 467.864 475.234 467.94C474.199 468.092 473.312 468.548 472.869 468.7C467.843 463.382 463.334 458.596 458.973 453.886C464.591 446.896 467.325 446.44 472.795 451.227C477.451 455.405 481.295 461.255 489.055 456.848C490.46 456.013 493.342 457.988 495.56 458.596C497.777 459.204 500.068 460.571 502.138 460.267C509.603 459.204 515.22 463.154 520.542 467.333C522.759 469.08 526.972 469.612 525.642 475.158C524.976 477.817 528.081 482.147 534.437 483.211C531.85 479.032 530.15 476.297 527.859 472.651C534.141 472.271 535.324 477.285 538.872 478.956ZM-90.4872 438.919C-93.8132 433.449 -100.539 432.233 -101.944 425.472C-103.422 418.331 -105.344 411.265 -106.748 404.048C-107.265 401.541 -106.822 398.882 -106.822 395.995C-104.456 395.235 -102.535 394.399 -100.613 394.019C-90.4872 391.968 -88.5654 393.26 -85.7568 403.744C-85.5352 404.58 -84.7219 405.339 -84.6481 406.175C-83.9089 412.557 -82.4308 419.09 -83.0221 425.32C-83.5394 429.878 -84.2786 435.576 -90.4872 438.919ZM764.451 421.749C769.551 424.484 774.207 427.447 779.159 429.574C783.003 431.246 783.52 433.677 782.855 437.476C776.055 441.502 768.664 439.831 761.642 440.135C747.081 440.818 747.082 440.666 740.134 427.751C737.473 422.813 739.321 417.723 744.568 417.343C749.521 416.963 755.064 416.355 758.833 421.597C759.72 422.813 761.42 423.497 762.825 424.332C763.638 422.965 764.229 422.053 764.451 421.749ZM855.141 510.865C857.58 516.183 861.867 515.651 865.932 513.448C868.593 512.004 871.106 509.953 873.101 507.674C875.688 504.635 878.571 504.635 881.601 506.078C883.966 507.218 885.371 512.992 884.114 515.651C883.523 516.943 882.34 518.006 881.527 519.146C875.91 527.047 868.297 532.365 860.241 536.391C858.467 535.632 856.915 534.644 855.289 534.264C847.823 532.289 846.567 530.314 846.641 522.944C846.715 517.322 848.858 513.448 855.141 510.865ZM65.8363 378.749C67.6841 373.431 71.8231 370.24 76.5535 367.961C84.8315 364.01 93.5531 361.655 102.792 361.731C107.375 361.731 112.031 361.427 115.801 357.781C117.87 355.729 120.014 356.945 121.344 359.452C119.422 360.668 114.84 358.996 116.54 364.162C116.761 364.77 115.875 366.366 115.653 366.366C109.814 365.53 107.005 371.456 101.831 372.671C94.4401 374.419 87.1229 377.534 80.4708 381.332C73.9666 384.903 71.8231 385.207 65.8363 378.749ZM720.769 631.129C719.66 624.519 718.552 617.986 717.443 611.908C720.695 611.148 723.208 610.616 726.756 609.781C722.838 607.653 720.251 606.21 716.999 604.462C718.478 602.715 719.291 601.955 719.882 601.044C720.695 599.828 721.582 598.613 722.025 597.245C724.686 589.116 724.686 589.04 733.63 588.356C734.886 593.447 738.064 599.144 737.177 604.007C735.921 610.996 731.708 617.378 728.825 623.987C727.495 627.33 725.869 630.293 720.769 631.129ZM138.566 388.777C133.318 388.246 128.957 387.03 124.892 387.562C120.679 388.094 116.614 390.297 112.179 391.892C109.37 387.106 106.857 382.7 104.344 378.369C116.318 368.265 128.587 367.581 140.265 376.47C139.748 380.041 139.231 383.763 138.566 388.777ZM1503.35 397.97C1511.7 396.603 1507.12 405.263 1511.33 407.846C1513.99 407.846 1517.09 407.543 1519.76 411.037C1522.12 414.152 1525.89 416.127 1529.29 418.331C1531.73 419.926 1531.95 421.673 1531.06 424.332C1529.07 429.802 1524.71 432.385 1520.2 434.893C1517.39 432.613 1513.18 433.905 1511.99 428.967C1509.48 418.71 1506.3 408.606 1503.35 397.97ZM936.739 415.292C935.261 414.228 934.226 413.089 933.044 412.785C931.344 412.329 929.274 413.013 927.648 412.405C924.544 411.265 921.587 409.518 918.779 408.15C916.34 402.604 913.383 397.058 918.187 391.057C922.918 394.475 929.2 393.412 933.413 398.578C937.996 404.124 937.626 409.518 936.739 415.292ZM1810.89 595.498C1810.89 595.118 1810.67 593.978 1811.12 593.371C1813.04 591.091 1812 586.609 1816.14 586.001C1819.62 585.469 1821.39 587.597 1823.09 590.18C1824.05 591.547 1825.45 592.687 1826.79 593.75C1829.59 596.03 1832.25 598.233 1830.41 602.563C1828.49 607.198 1825.09 609.249 1820.13 608.641C1815.85 608.185 1811.04 601.576 1810.89 595.498ZM364.662 295.104C362.74 299.89 363.257 306.499 355.718 307.943C355.127 306.499 353.797 304.828 354.018 303.461C354.979 297.383 356.236 291.381 357.788 285.455C358.01 284.695 360.375 284.468 362.149 283.86V293.204C365.844 290.621 368.357 288.874 371.018 287.051C369.54 284.392 368.579 282.568 367.766 281.049H358.97C360.079 277.25 360.966 274.287 362.297 269.805C367.914 276.263 374.27 280.517 374.344 290.014C371.314 291.609 368.062 293.28 364.662 295.104ZM994.686 565.109C992.173 558.879 988.182 554.777 991.212 549.003C988.699 548.015 986.408 547.179 983.082 545.888C987.147 543.913 990.177 542.469 992.321 541.406C996.534 543.305 1000.01 544.9 1003.7 546.648C1004.89 540.266 999.49 541.558 996.608 538.974C1000.3 537.227 1002.96 535.936 1005.7 534.644C1009.69 545.28 1002.23 552.422 1000.53 560.854C1000.23 562.374 997.199 563.362 994.686 565.109ZM-38.0836 342.89C-30.1012 336.205 -23.0797 342.966 -16.0581 341.143C-15.319 346.841 -9.77539 344.865 -5.78418 347.524C-11.2537 352.463 -17.1667 350.487 -22.4884 350.487C-28.2535 350.411 -34.0186 349.652 -40.2272 349.196C-39.1185 346.005 -38.3053 343.574 -38.0836 342.89ZM-99.2089 308.095C-106.452 296.699 -103.348 288.038 -90.7828 284.164C-85.1655 287.582 -91.1526 295.787 -84.057 298.75C-89.4525 302.169 -94.035 304.98 -99.2089 308.095ZM783.816 254.003C785.368 255.37 786.994 256.054 787.142 257.042C787.659 260.156 787.881 263.347 787.807 266.462C787.511 273.679 787.216 280.821 786.403 287.962C786.255 289.33 783.816 290.469 782.411 291.761C781.45 290.469 779.603 289.254 779.529 287.962C779.307 281.277 779.085 274.515 779.75 267.83C780.268 263.575 782.19 259.549 783.816 254.003ZM1381.69 616.162C1381.32 609.249 1383.17 604.083 1387.82 600.056C1391.44 596.941 1393.88 597.017 1396.69 599.98C1399.72 603.171 1400.02 605.982 1396.99 609.325C1393.22 613.503 1388.71 616.542 1381.69 616.162ZM1507.63 369.177C1510.59 365.834 1513.25 362.415 1516.36 359.452C1520.35 355.653 1526.56 356.945 1527 363.175C1527.15 364.922 1527.96 366.669 1527.81 368.341C1527.66 369.632 1526.48 371.76 1525.74 371.76C1519.9 371.988 1513.62 376.774 1507.63 369.177ZM1437.42 411.645C1432.76 419.85 1429.07 426.384 1425.3 432.993C1418.5 430.79 1415.24 425.168 1418.94 421.369C1421.9 418.255 1425.3 415.368 1428.92 413.089C1430.69 411.873 1433.43 412.253 1437.42 411.645ZM583.071 599.372C580.854 604.463 578.784 609.249 576.493 614.567C572.28 609.249 568.88 604.994 565.776 601.044C568.215 597.245 570.063 594.282 571.837 591.471C575.606 594.13 579.006 596.561 583.071 599.372ZM1324.92 372.063C1326.77 371 1328.4 370.088 1330.54 368.873C1330.32 365.986 1330.02 362.567 1329.73 359.224C1331.65 358.389 1333.2 357.705 1334.61 357.097C1339.85 362.035 1341.78 367.809 1340.52 375.862C1335.35 374.571 1330.62 373.431 1324.92 372.063ZM1002.45 455.937C1004.59 459.432 1005.7 461.331 1006.81 463.078C1002.15 466.193 997.199 469.612 992.173 472.955C991.064 470.903 990.547 468.928 989.364 467.713C986.482 464.826 986.63 462.85 990.399 461.255C994.317 459.583 998.234 457.76 1002.45 455.937ZM380.109 394.247C374.936 389.841 370.723 386.27 365.327 381.636C373.975 379.661 379.222 382.7 384.174 387.106C384.47 387.41 384.47 388.018 384.914 389.233C383.583 390.601 382.031 392.272 380.109 394.247ZM963.126 397.134C959.652 390.677 962.83 386.726 966.082 383.231C968.3 380.8 971.034 382.016 973.769 383.763C970 388.246 968.891 394.095 963.126 397.134ZM557.424 241.087C553.285 234.63 553.876 229.084 558.385 226.577C559.641 225.893 562.376 225.893 563.041 226.729C564.076 228.02 564.815 230.831 564.15 232.123C562.598 235.162 560.085 237.669 557.424 241.087ZM22.2283 349.12C14.7632 351.779 7.81543 351.779 -3.7887 349.424C-1.79309 348.056 -0.240845 345.929 1.23743 346.081C7.7417 346.689 14.2458 347.904 22.2283 349.12ZM1276.22 239.948C1281.61 241.771 1283.24 245.494 1283.09 251.344C1280.36 253.015 1277.4 254.686 1274.59 256.434C1275.11 250.812 1275.62 246.178 1276.22 239.948ZM971.404 481.919C970.813 481.615 970.147 481.312 969.556 481.008C970.739 476.677 971.847 472.271 973.252 466.953C975.765 467.94 978.204 468.928 982.269 470.523C977.908 475.158 974.656 478.501 971.404 481.919ZM670.731 279.453C669.4 284.012 668.144 287.203 664.078 286.443C662.822 286.215 660.827 284.012 660.9 282.948C661.122 280.821 662.378 277.174 663.561 277.098C665.778 276.87 668.292 278.542 670.731 279.453ZM408.491 606.21C413.961 603.855 419.43 601.348 424.974 599.22C425.787 598.917 427.191 600.132 428.595 600.664C422.535 606.438 415.735 606.97 408.491 606.21ZM1469.64 401.389C1475.56 400.933 1479.7 402.148 1481.77 408.454C1477.18 408.074 1473.41 407.77 1469.2 407.467C1469.35 405.111 1469.5 403.44 1469.64 401.389ZM7.66772 451.91C9.21985 447.808 7.00244 442.414 14.3197 442.338C14.6154 445.605 14.911 448.795 15.2067 451.91H7.66772ZM1270.97 252.331C1262.39 251.344 1262.39 251.344 1262.25 243.822C1265.43 246.709 1270.82 246.178 1270.97 252.331ZM984.412 389.157C983.747 389.005 983.008 388.777 982.343 388.625C983.008 385.814 983.599 383.079 984.265 380.42C987.517 381.256 989.808 381.788 992.986 382.548C989.734 385.055 987.073 387.106 984.412 389.157ZM850.484 441.046C849.893 437.324 849.449 434.817 848.71 430.334C852.923 432.689 855.658 434.209 859.427 436.336C856.027 438.083 853.81 439.299 850.484 441.046ZM441.678 665.316C440.347 654.452 440.347 654.452 444.93 650.73C444.043 654.3 443.673 656.807 442.713 659.011C441.9 661.138 446.926 664.177 441.678 665.316ZM802.811 488.833C802.294 488.529 801.702 488.149 801.185 487.845C801.554 481.767 808.428 483.287 811.902 480.78C808.872 483.439 805.841 486.174 802.811 488.833ZM23.8542 428.891C24.0759 423.953 27.5499 421.521 31.3195 419.622C31.9108 419.318 33.3152 420.686 34.35 421.293C30.6544 423.953 27.3281 426.384 23.8542 428.891ZM438.647 647.919C434.434 650.654 431.404 647.463 428.374 646.703C428.004 646.627 428.152 644.12 428.152 642.98C431.7 644.728 434.73 646.095 438.647 647.919ZM1794.26 590.408C1793.23 587.597 1792.27 586.001 1792.19 584.254C1792.19 583.342 1793.82 582.431 1794.71 581.519C1795.89 582.962 1797.59 584.178 1798.18 585.849C1798.33 586.609 1796.26 588.128 1794.26 590.408ZM975.617 552.27C975.247 548.395 976.725 546.572 979.904 547.028C980.791 547.179 982.195 549.231 981.973 550.066C981.012 554.397 978.204 552.877 975.617 552.27ZM163.548 249.444C161.478 243.594 164.139 242.911 167.835 243.518C168.574 243.67 169.165 244.962 170.2 246.178C167.613 247.393 165.691 248.381 163.548 249.444ZM931.27 261.98C926.392 267.678 926.392 267.678 923.361 261.98H931.27ZM659.718 483.363C660.383 483.591 661.048 483.819 661.64 484.123C660.383 487.237 659.126 490.276 657.87 493.391C657.426 493.239 656.983 493.087 656.613 492.935C657.648 489.744 658.683 486.554 659.718 483.363ZM783.89 466.497C783.003 466.801 782.116 467.105 781.229 467.485C780.637 465.509 779.972 463.534 779.381 461.483C779.972 461.255 780.563 461.027 781.155 460.799C782.042 462.698 783.003 464.598 783.89 466.497ZM450.547 633.56C450.473 632.648 450.399 631.737 450.252 630.825C451.952 630.597 453.578 630.217 455.278 630.217C455.573 630.217 455.943 631.509 456.682 633.104C454.243 633.256 452.395 633.408 450.547 633.56ZM909.466 612.136C908.431 615.175 907.766 617.226 906.953 619.125C906.953 619.201 905.105 618.897 904.957 618.365C903.701 615.403 904.957 613.655 909.466 612.136ZM-80.8047 262.891C-81.2482 266.158 -82.3569 268.437 -86.4221 266.462C-84.5004 265.247 -82.6525 264.107 -80.8047 262.891ZM1202.01 285.379C1201.49 284.695 1200.97 284.012 1200.46 283.328C1201.2 280.289 1203.04 279.225 1208.22 280.137C1205.33 282.568 1203.63 283.936 1202.01 285.379ZM1394.48 546.876C1396.18 548.167 1397.8 549.383 1400.31 551.206C1397.43 552.042 1395.95 552.498 1394.03 553.105C1394.25 550.446 1394.4 548.547 1394.48 546.876ZM1594.48 563.969C1590.56 567.844 1588.49 566.552 1586.5 564.805C1586.28 564.577 1586.57 563.741 1586.65 562.678C1588.72 563.058 1590.78 563.362 1594.48 563.969ZM1086.19 639.714C1091.14 635.383 1091.14 635.383 1096.17 638.346C1093.36 638.726 1090.55 639.106 1086.19 639.714ZM436.356 640.245C436.43 639.41 436.43 638.574 436.504 637.814C438.869 638.042 441.234 638.346 443.599 638.574C443.526 639.106 443.526 639.714 443.452 640.245H436.356ZM630.449 633.332C631.114 630.445 631.483 628.774 631.927 626.494C633.479 627.786 634.292 628.47 635.549 629.533C634.07 630.673 632.814 631.585 630.449 633.332ZM806.359 635.459C807.246 635.611 808.133 635.839 809.094 635.991C808.65 637.586 808.133 639.182 807.689 640.701C807.098 640.625 806.58 640.473 805.989 640.397C806.063 638.802 806.211 637.131 806.359 635.459ZM395.187 441.122C394.152 439.527 393.413 438.463 392.97 437.248C392.896 437.02 394.374 435.728 394.744 435.88C395.926 436.412 396.887 437.4 397.922 438.159C397.109 438.995 396.444 439.755 395.187 441.122ZM693.052 409.67C692.609 409.442 692.091 409.29 691.648 409.062C692.239 407.087 692.83 405.111 693.422 403.136C694.013 403.364 694.604 403.592 695.195 403.744C694.456 405.719 693.791 407.694 693.052 409.67ZM1186.27 632.648C1187.74 630.749 1188.26 629.305 1188.93 629.229C1189.74 629.154 1190.77 630.065 1191.66 630.597C1191.29 631.281 1191 632.268 1190.4 632.496C1189.59 632.876 1188.56 632.648 1186.27 632.648ZM983.821 475.918C983.304 475.234 982.86 474.626 982.343 473.942C983.673 472.955 985.078 471.967 986.408 470.979C986.778 471.435 987.147 471.891 987.517 472.347C986.334 473.562 985.078 474.702 983.821 475.918ZM473.756 624.823C474.273 625.355 474.716 625.887 475.234 626.418C473.386 627.634 471.538 628.85 469.69 630.141C469.469 629.761 469.247 629.457 468.951 629.077C470.503 627.71 472.13 626.267 473.756 624.823ZM-31.21 553.789C-32.5404 555.384 -33.5751 556.524 -36.0881 559.411C-35.5708 555.688 -35.275 554.017 -35.0533 552.27C-33.8707 552.725 -32.6143 553.257 -31.21 553.789ZM382.622 464.674C382.918 465.053 383.214 465.509 383.509 465.889C382.327 466.953 381.07 467.94 379.888 469.004C379.74 468.776 379.592 468.624 379.444 468.396C380.553 467.105 381.588 465.889 382.622 464.674ZM901.631 483.515C901.114 484.047 900.596 484.502 900.079 485.034C899.192 483.819 898.231 482.527 897.344 481.312C897.64 481.084 898.009 480.78 898.305 480.476C899.414 481.464 900.522 482.527 901.631 483.515ZM985.965 558.423C985.151 557.512 984.265 556.98 984.265 556.372C984.191 555.688 984.856 555.005 985.225 554.245C985.743 554.701 986.63 555.081 986.778 555.688C986.851 556.372 986.334 557.208 985.965 558.423ZM480.703 588.66C480.334 588.204 479.964 587.749 479.595 587.293C480.999 586.153 482.477 584.938 483.881 583.798C484.103 584.102 484.399 584.482 484.621 584.786C483.29 586.077 481.96 587.369 480.703 588.66ZM1209.1 610.388C1209.33 610.768 1209.55 611.224 1209.84 611.604C1208.66 612.516 1207.48 613.351 1206.3 614.263C1206 613.579 1205.63 612.895 1205.33 612.212C1206.59 611.604 1207.85 610.996 1209.1 610.388ZM253.794 647.463C254.311 647.691 254.829 647.995 255.346 648.223C254.607 649.438 253.942 650.654 253.277 651.945C252.833 651.641 252.02 651.185 252.02 651.109C252.538 649.818 253.129 648.602 253.794 647.463ZM74.7057 227.109C76.7013 226.501 77.7361 225.817 78.4752 226.045C79.2882 226.273 79.8057 227.412 80.4708 228.096C79.5839 228.552 78.6969 229.464 77.8839 229.464C77.1448 229.388 76.3318 228.4 74.7057 227.109ZM-38.0099 240.404C-38.2316 240.1 -38.4534 239.872 -38.749 239.568C-37.7882 238.656 -36.8273 237.669 -35.7925 236.757C-35.4968 237.061 -35.275 237.365 -34.9794 237.669C-35.9402 238.656 -36.9751 239.568 -38.0099 240.404ZM-0.462646 274.059C-0.166992 274.439 0.128662 274.743 0.424316 275.123C-0.684326 276.111 -1.71912 277.174 -2.82776 278.162C-3.12341 277.782 -3.41907 277.478 -3.71472 277.098C-2.67993 276.111 -1.57129 275.047 -0.462646 274.059ZM131.692 296.623C132.135 296.699 132.579 296.775 132.948 296.851C132.874 298.37 132.726 299.89 132.653 301.333C131.913 301.257 131.174 301.105 130.435 301.029C130.879 299.51 131.248 298.067 131.692 296.623Z" fill="#FBDDC0"/>
</g>
<defs>
<clipPath id="clip0_34_4846">
<rect width="1600" height="671" fill="white" transform="matrix(-1 0 0 1 1600 0)"/>
</clipPath>
</defs>
</svg>
