<svg width="180" height="180" viewBox="0 0 180 180" fill="none" xmlns="http://www.w3.org/2000/svg">
<path d="M177.6 2.25H173.7C166.125 7.8 142.275 25.2 137.025 29.325C130.8 34.275 126.975 32.175 124.5 30.3C122.025 28.425 120.525 23.1 120.525 23.1L121.5 2.25H2.25V170.625C6 168.45 9.07499 166.65 9.59999 166.5C11.1 166.125 13.2 168.75 14.925 169.725C16.65 170.7 18.525 171.225 17.55 173.175C17.25 173.85 15.9 175.575 14.325 177.525H133.5C134.775 174.225 136.05 170.85 136.8 168.975C138.6 164.175 147.6 166.8 152.475 166.5C155.925 166.275 157.35 172.725 158.1 177.6H177.525M10.05 156.975C9.59997 156.675 9.30001 156.225 9.15001 155.7L6.97499 148.2C6.74999 147.375 6.97501 146.475 7.65001 145.875L12.6 141.6C12.825 141.375 13.125 141.525 13.2 141.825L15.225 159.6L10.05 156.975ZM41.25 31.95C41.025 34.8 33.075 40.65 33.075 40.65C33.075 40.65 30.825 42 24.15 39.3C17.55 36.675 7.125 31.95 7.125 31.95C7.125 31.95 12.075 27.225 17.7 23.625C23.4 20.025 27 14.55 27.75 14.175C28.5 13.8 34.95 11.925 36.075 14.175C37.275 16.425 41.475 29.1 41.25 31.95ZM85.95 146.25L71.175 159.9C71.175 159.9 65.7 156.9 62.55 155.325C59.4 153.75 51.75 152.625 51.75 152.625L54.45 143.85C54.45 143.85 59.475 143.25 61.8 142.125C64.125 141 68.7 135.975 71.175 132.525C73.65 129.075 77.55 129.9 77.55 129.9C77.55 129.9 83.85 135.825 86.025 139.425C88.2 143.025 85.95 146.25 85.95 146.25ZM89.55 36.45L92.55 37.575L100.5 47.775L94.8 48.75C94.8 48.75 93.825 47.4 91.05 42.675C88.2 38.025 89.55 36.45 89.55 36.45ZM96.9 166.5C93.3 165.075 94.8 161.325 94.8 161.325C94.8 161.325 100.425 158.625 102.225 161.325C104.025 164.025 100.5 167.925 96.9 166.5ZM144.825 142.5C142.2 147.225 138.225 166.5 138.225 166.5C138.225 166.5 129.675 166.35 125.55 162.75C121.35 159.15 118.725 156.525 118.725 156.525C118.725 156.525 123.675 146.85 128.175 139.5C132.75 132.15 135.375 125.1 135.375 125.1L144.825 134.55C144.825 134.55 147.45 137.775 144.825 142.5ZM168.45 48.75C165.225 51.225 160.125 50.25 160.125 50.25C160.125 50.25 156.9 46.05 154.425 40.95C151.95 35.775 149.7 29.25 149.7 29.25L154.425 27.975L170.775 42.6C170.7 42.6 171.675 46.35 168.45 48.75Z" fill="white"/>
<path d="M13.05 83.025H25.05V85.575H20.625V94.425H17.475V85.575H13.05V83.025Z" fill="#1D1D1B"/>
<path d="M37.5 83.025V85.5H30.075V87.375H37.2V89.925H30.075V91.95H37.575V94.425H27V83.025H37.5Z" fill="#1D1D1B"/>
<path d="M43.2 90.75V94.425H40.05V82.95H47.775C51.375 82.95 52.5 84.525 52.5 86.775V86.925C52.5 89.1 51.375 90.75 47.775 90.75H43.2ZM43.2 88.2H47.55C48.675 88.2 49.2 87.675 49.2 86.925V86.85C49.2 86.025 48.675 85.575 47.55 85.575H43.2V88.2Z" fill="#1D1D1B"/>
<path d="M57.675 90.75V94.425H54.525V82.95H62.25C65.85 82.95 66.975 84.525 66.975 86.775V86.925C66.975 89.1 65.85 90.75 62.25 90.75H57.675ZM57.675 88.2H62.025C63.15 88.2 63.675 87.675 63.675 86.925V86.85C63.675 86.025 63.15 85.575 62.025 85.575H57.675V88.2Z" fill="#1D1D1B"/>
<path d="M77.175 92.325H71.025L70.125 94.425H66.975L72.075 82.95H76.35L81.675 94.425H78.3L77.175 92.325ZM76.125 90L74.025 85.35L72 90H76.125Z" fill="#1D1D1B"/>
<path d="M93.9 94.425H83.175V83.025H86.325V91.95H91.875V83.025H95.025V91.95H96.9V96.375H93.9V94.425Z" fill="#1D1D1B"/>
<path d="M109.35 94.425H98.625V83.025H101.775V91.95H107.325V83.025H110.475V91.95H112.35V96.375H109.35V94.425Z" fill="#1D1D1B"/>
<path d="M121.05 82.8C126.375 82.8 127.95 85.95 127.95 88.425V88.875C127.95 91.35 126.45 94.575 121.05 94.575H120.375C115.05 94.575 113.475 91.35 113.475 88.875V88.425C113.475 85.95 114.975 82.8 120.375 82.8H121.05ZM120.675 85.425C117.45 85.425 116.775 87.15 116.775 88.575V88.8C116.775 90.15 117.525 92.025 120.675 92.025C123.9 92.025 124.575 90.225 124.575 88.8V88.575C124.65 87.15 123.9 85.425 120.675 85.425Z" fill="#1D1D1B"/>
<path d="M133.05 91.425H129.45V94.425H133.05V91.425Z" fill="#1D1D1B"/>
<path d="M138.675 90.75V94.425H135.525V82.95H143.25C146.85 82.95 147.975 84.525 147.975 86.775V86.925C147.975 89.1 146.85 90.75 143.25 90.75H138.675ZM138.675 88.2H143.025C144.15 88.2 144.675 87.675 144.675 86.925V86.85C144.675 86.025 144.15 85.575 143.025 85.575H138.675V88.2Z" fill="#1D1D1B"/>
<path d="M156.975 82.875H160.125V84.075H162.225C165.225 84.075 167.625 85.275 167.625 88.5V88.65C167.625 91.875 165.225 93.3 162.225 93.3H160.125V94.65H156.975V93.3H154.875C151.8 93.3 149.475 91.875 149.475 88.65V88.5C149.475 85.275 151.8 84.075 154.875 84.075H156.975V82.875ZM155.55 86.55C153.825 86.55 152.775 87.15 152.775 88.5V88.65C152.775 90.225 153.75 90.825 155.55 90.825H156.975V86.625H155.55V86.55ZM160.2 90.75H161.625C163.35 90.75 164.4 90.15 164.4 88.575V88.425C164.4 87.075 163.35 86.475 161.625 86.475H160.2V90.75Z" fill="#1D1D1B"/>
</svg>
