<svg width="90" height="90" viewBox="0 0 90 90" fill="none" xmlns="http://www.w3.org/2000/svg">
<path d="M90 0H87.9983C84.1104 2.84859 71.8691 11.7793 69.1745 13.8965C65.9795 16.4371 64.0163 15.3593 62.7459 14.3969C61.4756 13.4346 60.7057 10.7014 60.7057 10.7014L61.2062 0H0V86.42C1.92472 85.3037 3.503 84.3798 3.77246 84.3028C4.54235 84.1103 5.62019 85.4576 6.50556 85.9581C7.39093 86.4585 8.35329 86.728 7.85286 87.7288C7.69889 88.0753 7.00599 88.9606 6.19761 89.9615H22.5192H55.7784H67.3653C68.0197 88.2677 68.6741 86.5355 69.059 85.5731C69.9829 83.1095 74.6022 84.4568 77.1044 84.3028C78.8751 84.1873 79.6065 87.4979 79.9914 90H89.9615M4.00342 79.414C3.77245 79.26 3.61848 79.0291 3.54149 78.7596L2.42516 74.9102C2.30967 74.4867 2.42515 74.0248 2.7716 73.7169L5.31224 71.5227C5.42772 71.4072 5.5817 71.4842 5.62019 71.6382L6.65954 80.7613L4.00342 79.414ZM20.0171 15.2438C19.9016 16.7066 15.8212 19.7091 15.8212 19.7091C15.8212 19.7091 14.6664 20.4021 11.2404 19.0163C7.85287 17.6689 2.50214 15.2438 2.50214 15.2438C2.50214 15.2438 5.04277 12.8186 7.92986 10.9709C10.8554 9.12318 12.7032 6.31309 13.0881 6.12061C13.4731 5.92814 16.7836 4.96578 17.361 6.12061C17.9769 7.27545 20.1326 13.781 20.0171 15.2438ZM42.9598 73.9093L35.3764 80.9153C35.3764 80.9153 32.5663 79.3755 30.9495 78.5672C29.3328 77.7588 25.4063 77.1814 25.4063 77.1814L26.7921 72.6775C26.7921 72.6775 29.3713 72.3695 30.5646 71.7921C31.7579 71.2147 34.1061 68.6356 35.3764 66.8648C36.6467 65.0941 38.6484 65.5175 38.6484 65.5175C38.6484 65.5175 41.8819 68.5586 42.9983 70.4063C44.0761 72.2156 42.9598 73.9093 42.9598 73.9093ZM44.8075 17.5535L46.3473 18.1309L50.4277 23.3661L47.5021 23.8666C47.5021 23.8666 47.0017 23.1736 45.5774 20.7485C44.1146 18.3618 44.8075 17.5535 44.8075 17.5535ZM48.58 84.3028C46.7322 83.5714 47.5021 81.6467 47.5021 81.6467C47.5021 81.6467 50.3892 80.2609 51.3131 81.6467C52.237 83.0325 50.4277 85.0342 48.58 84.3028ZM73.1779 71.9846C71.8306 74.4098 69.7904 84.3028 69.7904 84.3028C69.7904 84.3028 65.402 84.2258 63.2849 82.3781C61.1292 80.5304 59.7819 79.1831 59.7819 79.1831C59.7819 79.1831 62.3225 74.2173 64.6322 70.4448C66.9803 66.6724 68.3276 63.0539 68.3276 63.0539L73.1779 67.9042C73.1779 67.9042 74.5252 69.5594 73.1779 71.9846ZM85.3037 23.905C83.6484 25.1754 81.0308 24.6749 81.0308 24.6749C81.0308 24.6749 79.3755 22.5192 78.1052 19.9016C76.8349 17.2455 75.6801 13.8965 75.6801 13.8965L78.1052 13.2421L86.497 20.7485C86.4585 20.71 86.9589 22.6347 85.3037 23.905Z" fill="#1D1D1B"/>
<path d="M5.54688 41.4601H11.706V42.8074H9.43482V47.3498H7.81806V42.8074H5.54688V41.4601Z" fill="white"/>
<path d="M18.0992 42.731H14.3267V43.6933H17.9837V45.0022H14.3267V46.003H18.1377V47.3118H12.71V41.4222H18.0992V42.731Z" fill="white"/>
<path d="M21.0196 45.4256V47.3118H19.4028V41.4222H23.3678C25.2155 41.4222 25.7929 42.2306 25.7929 43.3854V43.4624C25.7929 44.5787 25.2155 45.4256 23.3678 45.4256H21.0196ZM21.0196 44.1168H23.2523C23.8297 44.1168 24.0992 43.8473 24.0992 43.4624V43.4239C24.0992 43.0004 23.8297 42.7695 23.2523 42.7695H21.0196V44.1168Z" fill="white"/>
<path d="M28.4507 45.4256V47.3118H26.834V41.4222H30.7989C32.6466 41.4222 33.2241 42.2306 33.2241 43.3854V43.4624C33.2241 44.5787 32.6466 45.4256 30.7989 45.4256H28.4507ZM28.4507 44.1168H30.6834C31.2608 44.1168 31.5303 43.8473 31.5303 43.4624V43.4239C31.5303 43.0004 31.2608 42.7695 30.6834 42.7695H28.4507V44.1168Z" fill="white"/>
<path d="M38.4982 46.2341H35.3417L34.8797 47.312H33.263L35.8806 41.4223H38.0748L40.8079 47.312H39.0756L38.4982 46.2341ZM37.9593 45.0408L36.8814 42.6542L35.8421 45.0408H37.9593Z" fill="white"/>
<path d="M47.0428 47.3118H41.5381V41.4222H43.1549V46.003H46.0035V41.4222H47.6202V46.003H48.5826V48.2742H47.0428V47.3118Z" fill="white"/>
<path d="M49.5054 47.3118V41.4222H51.1221V46.003H53.9707V41.4222H55.5875V46.003H56.5498V48.2742H55.0101V47.3118H49.5054Z" fill="white"/>
<path d="M61.0178 41.3447C63.7509 41.3447 64.5593 42.9615 64.5593 44.2318V44.4628C64.5593 45.7331 63.7894 47.3884 61.0178 47.3884H60.6714C57.9383 47.3884 57.1299 45.7331 57.1299 44.4628V44.2318C57.1299 42.9615 57.8998 41.3447 60.6714 41.3447H61.0178ZM60.8254 42.692C59.1701 42.692 58.8236 43.5774 58.8236 44.3088V44.4243C58.8236 45.1172 59.2086 46.0795 60.8254 46.0795C62.4806 46.0795 62.8271 45.1557 62.8271 44.4243V44.3088C62.8271 43.5774 62.4806 42.692 60.8254 42.692Z" fill="white"/>
<path d="M67.1778 47.3114H65.3301V45.7717H67.1778V47.3114Z" fill="white"/>
<path d="M70.0626 45.4256V47.3118H68.4458V41.4222H72.4107C74.2585 41.4222 74.8359 42.2306 74.8359 43.3854V43.4624C74.8359 44.5787 74.2585 45.4256 72.4107 45.4256H70.0626ZM70.0626 44.1168H72.2952C72.8727 44.1168 73.1421 43.8473 73.1421 43.4624V43.4239C73.1421 43.0004 72.8727 42.7695 72.2952 42.7695H70.0626V44.1168Z" fill="white"/>
<path d="M79.4583 41.3826H81.0751V41.9985H82.1529C83.6927 41.9985 84.9245 42.6145 84.9245 44.2697V44.3467C84.9245 46.002 83.6927 46.7334 82.1529 46.7334H81.0751V47.4262H79.4583V46.7334H78.3805C76.8022 46.7334 75.6089 46.002 75.6089 44.3467V44.2697C75.6089 42.6145 76.8022 41.9985 78.3805 41.9985H79.4583V41.3826ZM78.727 43.2689C77.8416 43.2689 77.3027 43.5768 77.3027 44.2697V44.3467C77.3027 45.1551 77.8031 45.463 78.727 45.463H79.4583V43.2689H78.727ZM81.0751 45.4245H81.8065C82.6919 45.4245 83.2308 45.1166 83.2308 44.3082V44.2312C83.2308 43.5383 82.6919 43.2304 81.8065 43.2304H81.0751V45.4245Z" fill="white"/>
</svg>
